<svg xmlns="http://www.w3.org/2000/svg" width="20.711" height="20.711" viewBox="0 0 20.711 20.711"><defs><style>.a{fill:#fff;}</style></defs><path class="a" d="M16.4,0H4.315A4.315,4.315,0,0,0,0,4.315V16.4a4.315,4.315,0,0,0,4.315,4.315H16.4A4.315,4.315,0,0,0,20.711,16.4V4.315A4.315,4.315,0,0,0,16.4,0ZM6.9,16.4H4.315V6.9H6.9ZM5.609,5.809a1.522,1.522,0,1,1,1.51-1.522A1.517,1.517,0,0,1,5.609,5.809ZM17.259,16.4H14.67V11.56c0-2.906-3.452-2.686-3.452,0V16.4H8.63V6.9h2.589V8.427c1.2-2.232,6.041-2.4,6.041,2.137Z"/></svg>