<svg xmlns="http://www.w3.org/2000/svg" width="20.709" height="20.711" viewBox="0 0 20.709 20.711"><defs><style>.a{fill:#fff;}</style></defs><path class="a" d="M5.34,7.524a5.538,5.538,0,0,1,8.533.847l-1.938,1.937A2.921,2.921,0,0,0,8.627,8.627,2.874,2.874,0,0,0,7.218,9.4L3.5,13.117a2.892,2.892,0,0,0,4.09,4.09l1.145-1.145a7.363,7.363,0,0,0,3.261.5L9.472,19.086A5.548,5.548,0,0,1,1.626,11.24L5.34,7.524Zm5.9-5.9L8.711,4.152a7.364,7.364,0,0,1,3.261.5L13.117,3.5a2.892,2.892,0,0,1,4.09,4.09l-3.715,3.715a2.9,2.9,0,0,1-4.09,0,3.078,3.078,0,0,1-.627-.907L6.836,12.339a5.211,5.211,0,0,0,.687.847,5.543,5.543,0,0,0,7.847,0l3.714-3.715a5.548,5.548,0,1,0-7.845-7.847Z" transform="translate(-0.001 0)"/></svg>