<svg xmlns="http://www.w3.org/2000/svg" width="1198.221" height="524.294" viewBox="0 0 1198.221 524.294"><defs><style>.a{opacity:0.07;}</style></defs><g class="a" transform="translate(0 0)"><g transform="translate(0 0)"><rect width="660.292" height="40.284" transform="translate(381.37 447.823)"/><rect width="52.554" height="235.067" transform="translate(355.272 263.561)"/><rect width="116.227" height="166.816" transform="translate(151.383 321.891)"/><rect width="98.47" height="25.067" transform="translate(169.141 310.459)"/><rect width="82.533" height="21.544" transform="translate(185.077 299.028)"/><rect width="69.065" height="19.172" transform="translate(198.521 285.752)"/><rect width="58.114" height="11.934" transform="translate(209.497 277.341)"/><rect width="41.267" height="25.714" transform="translate(226.344 263.561)"/><rect width="92.67" height="82.294" transform="translate(174.94 410.104)"/><path d="M87.305,180.994,29,155.64V266.859H87.305Z" transform="translate(40.497 217.343)"/><rect width="45.94" height="147.884" transform="translate(52.722 336.317)"/><rect width="117.426" height="24.995" transform="translate(0 467.642)"/><rect width="39.805" height="78.268" transform="translate(1090.836 418.755)"/><rect width="48.911" height="82.749" transform="translate(1133.325 429.922)"/><rect width="39.35" height="76.926" transform="translate(1009.908 424.123)"/><rect width="21.472" height="13.875" transform="translate(1020.189 418.755)"/><rect width="41.818" height="106.666" transform="translate(942.137 409.816)"/><rect width="30.123" height="65.303" transform="translate(856.249 355.704)"/><rect width="22.359" height="44.718" transform="translate(868.422 336.317)"/><rect width="25.642" height="74.529" transform="translate(883.041 361.048)"/><rect width="14.618" height="17.302" transform="translate(897.947 372.983)"/><rect width="14.451" height="54.567" transform="translate(905.256 382.832)"/><rect width="90.633" height="100.459" transform="translate(835.927 404.879)"/><rect width="47.114" height="75.44" transform="translate(908.683 429.922)"/><rect width="35.779" height="175.012" transform="translate(753.034 330.35)"/><rect width="47.713" height="142.516" transform="translate(765.256 362.846)"/><rect width="46.803" height="116.563" transform="translate(720.85 391.483)"/><rect width="38.463" height="87.806" transform="translate(670.452 413.243)"/><rect width="44.622" height="214.961" transform="translate(637.981 285.584)"/><rect width="129.408" height="30.962" transform="translate(1068.813 457.146)"/><rect width="33.191" height="60.846" transform="translate(25.546 443.318)"/><rect width="47.138" height="112.705" transform="translate(281.774 391.483)"/><rect width="77.453" height="85.577" transform="translate(342.643 418.587)"/><path d="M266.9,214.266s15.146-6.806,13.875-9.586L279.479,202l2.4-10.808-3.978-3.547-1.558-8.795H269.15l-.335-14.81h-3.786V105.444s3.547-.264,2.828-2.109a43.133,43.133,0,0,0-4.242-6.4V61.349l-1.006-1.007C262.392,23.437,261.961-.12,261.17,0a2.229,2.229,0,0,0-1.2.623,2.085,2.085,0,0,0-1.2-.623c-.767,0-1.222,23.437-1.414,60.342l-1.007,1.007V96.84a44.759,44.759,0,0,0-4.266,6.4c-.719,1.845,2.852,2.109,2.852,2.109v58.761h-3.786l-.336,14.81h-7.189l-1.582,8.795-3.978,3.547,2.4,10.808-1.27,2.684c-1.27,2.708,13.875,9.586,13.875,9.586L235.6,492.4h48.72Z" transform="translate(329.002 0)"/><path d="M261.44,220.269c-6.518,24.4-4.793,95.858-4.793,95.858H210.276s-1.989-25.258-.24-42.273-6.542-63.17-10.041-84.954c-2.229-14.019.575-43.352,2.876-62.5h51c.719,5.2,1.654,11.551,2.732,18.045C259.259,160.142,267.982,195.873,261.44,220.269Z" transform="translate(278.143 176.511)"/><path d="M225.41,230.036c-4.793,15.7-6.542,43.136-6.542,52.722s.216,30.075.216,30.075l-33.55-.863s-1.63-68.2-5.656-78.675-4.146-19.843-1.1-27.463c2.9-7.189,6.063-44.742,4.122-79.442h32.088c-.192,11.79,0,37.72,4.553,53.513C225.721,200.847,230.2,214.363,225.41,230.036Z" transform="translate(246.689 176.497)"/><rect width="1198.221" height="36.186" transform="translate(0 488.108)"/><rect width="74.625" height="298.189" transform="translate(781.623 190.134)"/><rect width="54.902" height="30.627" transform="translate(791.497 166.17)"/><rect width="30.027" height="26.696" transform="translate(803.91 147.07)"/><rect width="80.688" height="280.264" transform="translate(672.729 213.188)"/><rect width="65.71" height="13.756" transform="translate(680.206 203.482)"/><rect width="53.776" height="10.928" transform="translate(686.173 193.561)"/><rect width="39.038" height="11.719" transform="translate(693.554 183.855)"/><rect width="30.123" height="11.719" transform="translate(697.988 172.137)"/><rect width="6.279" height="28.709" transform="translate(709.922 149.275)"/><rect width="11.335" height="15.984" transform="translate(707.406 136.55)"/><path d="M526.15,216.293l-21.856-20.37-5.776,3.379-24.108,26.361-24.2-14.235-10.3,10.209V189.884l-1.366-.431v-2.4a8.843,8.843,0,0,0-7.189-8.891s0-2.229-1.51-2.4-1.606,2.277-1.606,2.277-5.7.959-6.542,8.795l-16.3-19.651-5.775.359-5.775-.359-16.32,19.651C376.684,179,371,178.046,371,178.046s0-2.4-1.63-2.277-1.51,2.4-1.51,2.4c-7.189,1.294-7.07,8.891-7.07,8.891v2.4l-1.39.431v21.185H317.731l-10.4-17.47-5.775-3.355L278.43,210.685v.383h-.647v34.293H267.55v19.914H529.265Z" transform="translate(373.618 233.472)"/><rect width="254.167" height="39.925" transform="translate(94.54 464.239)"/><path d="M251.943,238.255a39.782,39.782,0,0,1-4.793,18.668H56.993A39.781,39.781,0,0,1,52.2,238.255,40.572,40.572,0,0,1,58.407,217c14.139-23.293,50.829-39.949,93.677-39.949S231.646,193.705,245.832,217a40.739,40.739,0,0,1,6.111,21.256Z" transform="translate(72.894 247.24)"/></g></g></svg>